<?xml version="1.0" encoding="UTF-8" standalone="no"?>
<!-- Created with Inkscape (http://www.inkscape.org/) -->

<svg
   width="18.591499mm"
   height="32.68mm"
   viewBox="0 0 18.591499 32.68"
   version="1.1"
   id="svg5"
   fill="#FFFFFF"
   inkscape:version="1.1 (c68e22c387, 2021-05-23)"
   sodipodi:docname="gettr.svg"
   xmlns:inkscape="http://www.inkscape.org/namespaces/inkscape"
   xmlns:sodipodi="http://sodipodi.sourceforge.net/DTD/sodipodi-0.dtd"
   xmlns="http://www.w3.org/2000/svg"
   xmlns:svg="http://www.w3.org/2000/svg">
  <sodipodi:namedview
     id="namedview7"
     pagecolor="#ffffff"
     bordercolor="#666666"
     borderopacity="1.0"
     inkscape:pageshadow="2"
     inkscape:pageopacity="0.0"
     inkscape:pagecheckerboard="true"
     inkscape:document-units="mm"
     showgrid="false"
     inkscape:zoom="3.0003928"
     inkscape:cx="0"
     inkscape:cy="50.493389"
     inkscape:window-width="1920"
     inkscape:window-height="1027"
     inkscape:window-x="-8"
     inkscape:window-y="22"
     inkscape:window-maximized="1"
     inkscape:current-layer="svg5" />
  <defs
     id="defs2" />
  <g
     id="g37"
     transform="translate(-33.7456)">
    <path
       d="m 51.4568,3.33264 c -0.2306,1.29952 -0.8384,2.36848 -1.8026,3.31168 0.3983,0.08384 0.8594,-0.1048 1.1528,-0.37728 -0.1048,0.524 -0.2725,1.02704 -0.5449,1.50912 -0.4612,0.8384 -1.1948,1.53008 -1.9912,2.01216 -1.1528,0.67068 -2.4523,0.85938 -3.8357,1.08988 -0.9222,0.1468 -1.8864,0.2935 -2.4733,0.9223 -0.2934,0.3144 -0.503,0.7545 -0.6288,1.1947 C 40.2013,11.3813 39.3838,9.49488 39.5934,7.90192 39.8869,5.6592 42.1925,3.96144 44.7706,2.9344 47.4325,1.84448 50.4088,1.4672 52.3371,0 c -0.2305,0.7336 -0.524,1.4672 -0.9222,2.11696 -0.3983,0.67072 -0.9013,1.27856 -1.4463,1.82352 0.6079,-0.04192 1.048,-0.25152 1.4882,-0.60784 z"
       id="path9" />
    <path
       d="m 48.9206,15.4895 h -15.175 l 2.0331,3.5213 h 3.2069 V 32.68 h 4.6741 V 19.0108 h 3.2069 z"
       id="path15" />
  </g>
</svg>
