<?xml version="1.0" encoding="UTF-8" standalone="no"?>
<svg
   width="543"
   height="450"
   viewBox="0 0 543 450"
   version="1.1"
   id="svg5"
   sodipodi:docname="telegram.svg"
   inkscape:version="1.1 (c68e22c387, 2021-05-23)"
   xmlns:inkscape="http://www.inkscape.org/namespaces/inkscape"
   xmlns:sodipodi="http://sodipodi.sourceforge.net/DTD/sodipodi-0.dtd"
   xmlns="http://www.w3.org/2000/svg"
   xmlns:svg="http://www.w3.org/2000/svg">
  <defs
     id="defs9" />
  <path
     d="M 37.32842,193.72207 C 183.08857,130.21668 280.28484,88.35005 328.91722,68.12216 467.77253,10.36743 496.62548,0.33481021 515.43143,0.00353021 c 4.13619,-0.0729 13.38441,0.95221 19.37502,5.81317999 5.05835,4.1045 6.4501,9.6490998 7.1161,13.5406198 0.666,3.89152 1.49533,12.7565 0.83608,19.68334 -7.52462,79.06182 -40.08353,270.924 -56.64765,359.4746 -7.0089,37.46907 -20.80964,50.03226 -34.17036,51.26174 -29.03594,2.67193 -51.0845,-19.18898 -79.20723,-37.62377 -44.0065,-28.84682 -68.86738,-46.80406 -111.58332,-74.95323 -49.36565,-32.53123 -17.36395,-50.41096 10.76939,-79.63145 7.36263,-7.64714 135.29562,-124.01208 137.77177,-134.5682 0.30968,-1.32023 0.59708,-6.24138 -2.32649,-8.83993 -2.92357,-2.59855 -7.23851,-1.70995 -10.35229,-1.00323 -4.41369,1.00174 -74.71466,47.46807 -210.9029,139.39899 -19.95469,13.70243 -38.02904,20.37872 -54.22303,20.02886 C 114.03395,272.19935 79.69275,262.49093 54.16361,254.19241 22.85107,244.01394 -2.0355202,238.6325 0.13154984,221.34631 1.2602898,212.34259 13.65924,203.13451 37.32842,193.72207 Z"
     id="Path-3"
     fill="#ffffff" />
  <sodipodi:namedview
     id="namedview7"
     pagecolor="#ffffff"
     bordercolor="#666666"
     borderopacity="1.0"
     inkscape:pageshadow="2"
     inkscape:pageopacity="0.0"
     inkscape:pagecheckerboard="true"
     showgrid="false"
     inkscape:zoom="0.421"
     inkscape:cx="429.92874"
     inkscape:cy="692.39905"
     inkscape:window-width="1920"
     inkscape:window-height="1027"
     inkscape:window-x="-8"
     inkscape:window-y="22"
     inkscape:window-maximized="1"
     inkscape:current-layer="svg5" />
</svg>
